<svg width="20" height="20" viewBox="0 0 20 20" fill="none" xmlns="http://www.w3.org/2000/svg">
<path d="M5 15V19C5 19.2652 5.10536 19.5196 5.29289 19.7071C5.48043 19.8946 5.73478 20 6 20H19C19.2652 20 19.5196 19.8946 19.7071 19.7071C19.8946 19.5196 20 19.2652 20 19V6C20 5.73478 19.8946 5.48043 19.7071 5.29289C19.5196 5.10536 19.2652 5 19 5H15V1.007C15 0.451 14.551 0 13.993 0H1.007C0.874722 -0.000131607 0.743717 0.0258255 0.621483 0.0763855C0.499248 0.126945 0.388185 0.201117 0.294651 0.294651C0.201116 0.388186 0.126946 0.499249 0.0763858 0.621483C0.0258259 0.743717 -0.000131057 0.874722 4.9756e-07 1.007L0.00300052 13.993C0.00300052 14.549 0.452 15 1.01 15H5ZM7 15H13.993C14.549 15 15 14.551 15 13.993V7H18V18H7V15ZM2.003 13L2 2H13V13H2.003Z" fill="#004EF0"/>
</svg>
