<svg width="220" height="166" viewBox="0 0 220 166" fill="none" xmlns="http://www.w3.org/2000/svg">
<path d="M50.2557 64.7922C59.4386 66.015 66.5381 56.0961 67.427 54.8544C68.9085 52.7827 76.1185 42.7108 71.3024 33.7536C68.5816 28.693 61.8349 23.6253 55.02 25.6924C50.1475 27.1692 46.1875 31.8865 46.0581 36.5144C45.8982 42.2805 51.7866 44.3217 50.8883 48.8014C49.8489 53.9796 41.3549 54.3535 41.2468 58.3348C41.1692 61.246 45.9946 64.2255 50.2557 64.7922Z" fill="url(#paint0_linear)"/>
<path d="M12.2209 131.998C6.89929 122.879 6.48306 108.179 12.2209 97.7733C22.7137 78.749 47.5371 85.3969 68.786 63.5483C81.9784 49.9844 76.7038 43.0049 87.7986 29.3233C108.789 3.43939 160.399 -11.9494 192.374 11.7358C217.322 30.2169 225.364 68.8206 214.714 95.8709C187.727 164.42 35.5299 171.931 12.2209 131.998Z" fill="url(#paint1_linear)"/>
<path d="M98.9265 69.319C98.3433 70.5113 97.1675 71.6165 95.3991 72.6371L100.18 81.2792L93.9552 81.8248L90.1691 74.0457L88.4713 74.1939L88.0433 82.3421L82.3219 82.843L83.4601 60.724L90.9428 60.0703C93.5837 59.8398 95.6483 60.1925 97.1345 61.1285C98.6208 62.0644 99.4438 63.4448 99.6037 65.2696C99.7331 66.777 99.5073 68.1268 98.9265 69.319ZM88.6571 70.1844L90.6065 70.0151C91.8011 69.9093 92.6407 69.4837 93.1228 68.7335C93.6072 67.9833 93.8047 67.1156 93.7177 66.1303C93.6518 65.3754 93.3626 64.8416 92.85 64.5265C92.3373 64.2137 91.5871 64.0985 90.6018 64.1855L88.9675 64.329L88.6571 70.1844Z" fill="white"/>
<path d="M116.314 57.8486L115.479 62.0721L108.154 62.7141L107.898 67.3937L114.313 66.8317L114.129 70.9023L107.717 71.4643L107.46 76.492L115.289 75.8077L115.084 79.9747L101.501 81.1623L102.64 59.0432L116.314 57.8486Z" fill="white"/>
<path d="M132.034 56.4727L131.233 60.6938L124.317 61.2981L124.053 66.6127L130.12 66.0812L129.916 70.2483L123.846 70.7797L123.383 79.2478L117.659 79.7487L118.797 57.6296L132.034 56.4727Z" fill="white"/>
<path d="M147.47 55.123L146.635 59.3465L139.31 59.9885L139.054 64.6681L145.467 64.1061L145.283 68.1767L138.871 68.7387L138.614 73.7664L146.443 73.0821L146.238 77.2515L132.655 78.439L133.793 56.32L147.47 55.123Z" fill="white"/>
<path d="M165.422 63.4997C164.839 64.692 163.663 65.7972 161.895 66.8178L166.676 75.4599L160.451 76.0055L156.665 68.2264L154.967 68.3746L154.539 76.5228L148.818 77.0237L149.956 54.9047L157.439 54.2509C160.08 54.0205 162.144 54.3732 163.631 55.3091C165.117 56.2451 165.94 57.6254 166.1 59.4503C166.231 60.9576 166.006 62.3098 165.422 63.4997ZM155.155 64.3674L157.105 64.1958C158.299 64.0923 159.139 63.6643 159.621 62.9142C160.105 62.164 160.303 61.2963 160.216 60.311C160.15 59.5561 159.861 59.0223 159.348 58.7072C158.833 58.3944 158.085 58.2792 157.1 58.3662L155.466 58.5096L155.155 64.3674Z" fill="white"/>
<path d="M186.074 73.7641L185.338 69.329L179.647 69.8275L178.497 74.4272L172.522 74.9493L180.012 52.2753L186.93 51.6709L192.113 73.2373L186.074 73.7641ZM180.698 65.5523L184.691 65.2043L183.139 55.8026L180.698 65.5523Z" fill="white"/>
<path d="M104.709 88.5322L103.907 92.7533L96.9911 93.3577L96.7277 98.6723L102.795 98.1408L102.59 102.31L96.5208 102.842L96.0575 111.31L90.3337 111.811L91.4719 89.6916L104.709 88.5322Z" fill="white"/>
<path d="M121.939 96.9743C121.356 98.1666 120.18 99.2718 118.412 100.292L123.192 108.934L116.968 109.48L113.182 101.701L111.484 101.849L111.056 109.997L105.332 110.498L106.47 88.3793L113.953 87.7255C116.594 87.4951 118.658 87.8478 120.145 88.7837C121.631 89.7197 122.454 91.1001 122.614 92.9249C122.746 94.4323 122.52 95.7821 121.939 96.9743ZM111.67 97.8397L113.619 97.668C114.814 97.5622 115.653 97.1366 116.138 96.3864C116.622 95.6363 116.82 94.7685 116.733 93.7832C116.667 93.0284 116.377 92.4945 115.865 92.1794C115.352 91.8667 114.602 91.7514 113.617 91.8385L111.982 91.9819L111.67 97.8397Z" fill="white"/>
<path d="M131.371 86.1992L130.233 108.318L124.512 108.819L125.65 86.7001L131.371 86.1992Z" fill="white"/>
<path d="M148.444 84.7061L147.609 88.9295L140.284 89.5715L140.027 94.2512L146.44 93.6891L146.259 97.7597L139.844 98.3218L139.588 103.349L147.416 102.665L147.212 106.832L133.629 108.02L134.767 85.9007L148.444 84.7061Z" fill="white"/>
<path d="M166.767 105.122L159.536 105.755L154.713 89.0046C154.871 90.0675 155 91.1869 155.101 92.3603C155.296 94.5825 155.332 96.7977 155.207 99.0035L154.819 106.166L149.789 106.606L150.927 84.4872L158.064 83.8617L162.981 100.603C162.796 99.4574 162.647 98.2346 162.535 96.9365C162.372 95.0928 162.342 93.1622 162.44 91.1469L162.876 83.4407L167.906 83.001L166.767 105.122Z" fill="white"/>
<path d="M185.075 83.3392C187.005 84.3951 188.106 86.4739 188.378 89.5756C188.729 93.5804 188.033 96.9243 186.295 99.6098C184.555 102.298 181.462 103.836 177.02 104.224L170.135 104.826L171.273 82.7066L177.655 82.1469C180.67 81.8859 183.144 82.2833 185.075 83.3392ZM176.792 86.4386L176.089 100.125L177.505 100C179.642 99.8121 181.065 98.7421 181.771 96.7903C182.476 94.8385 182.721 92.6162 182.502 90.1212C182.365 88.548 181.949 87.4921 181.258 86.9512C180.567 86.408 179.581 86.194 178.302 86.3069L176.792 86.4386Z" fill="white"/>
<path d="M63.3963 165.995C63.14 165.995 62.8813 165.971 62.6227 165.92C60.8731 165.579 59.5891 164.158 59.4339 162.38L57.1106 136.144C47.0246 136.351 36.8822 136.384 26.935 136.238C22.7538 136.177 19.1606 133.308 18.1965 129.258C15.21 116.708 13.1241 103.828 11.993 90.9815C10.8736 78.2735 10.6714 65.3703 11.3886 52.6294C11.6285 48.3684 14.7443 44.8974 18.9678 44.1849C47.4243 39.3876 76.4288 35.6439 105.175 33.0619C134.948 30.3858 165.204 28.8855 195.106 28.6009C199.25 28.5656 202.916 31.3452 203.995 35.3664C207.332 47.7852 209.602 60.5755 210.742 73.3799C212.036 87.8797 211.779 108.371 210.787 119.807C210.439 123.819 207.422 127.158 203.452 127.927C178.043 132.849 151.005 133.312 124.86 133.759C110.48 134.004 95.6202 134.258 81.4848 135.274C78.985 140.17 66.9049 163.831 66.9049 163.831C66.2136 165.186 64.8614 165.995 63.3963 165.995ZM58.7143 132.598C59.622 132.598 60.384 133.291 60.4639 134.199L62.9331 162.072C62.9401 162.155 62.9637 162.406 63.2905 162.47C63.6198 162.531 63.735 162.31 63.7702 162.235L78.1549 134.06C79.0509 132.306 79.279 131.857 80.2901 131.838C94.8018 130.759 110.049 130.498 124.796 130.246C150.793 129.802 177.672 129.343 202.78 124.478C205.216 124.005 207.067 121.961 207.281 119.504C208.261 108.219 208.513 87.9997 207.236 73.6926C206.112 61.0905 203.878 48.5024 200.595 36.2789C199.93 33.8026 197.686 32.0601 195.132 32.1142C165.324 32.3964 135.16 33.892 105.48 36.561C76.8262 39.136 47.9135 42.868 19.5439 47.6511C16.9525 48.0885 15.0383 50.2167 14.8901 52.827C14.18 65.3986 14.3798 78.1324 15.4851 90.6734C16.6021 103.351 18.6621 116.059 21.6086 128.445C22.1989 130.926 24.407 132.687 26.9773 132.722C37.4207 132.873 48.0828 132.83 58.6673 132.593C58.6885 132.598 58.7026 132.598 58.7143 132.598Z" fill="#FFC708"/>
<path d="M36.7317 139.065L36.6023 139.164C34.6717 140.652 31.8921 140.319 30.3988 138.393C28.9079 136.474 27.3724 134.195 25.9614 131.538C22.4458 124.93 22.2741 120.022 21.7803 115.937L30.2907 113.656C30.9279 117.621 31.1608 121.861 34.0908 127.839C35.1984 130.096 36.1908 131.401 37.1643 132.405C39.0268 134.329 38.8528 137.428 36.7317 139.065Z" fill="#EAEEF0"/>
<g opacity="0.15">
<path opacity="0.15" d="M23.4028 125.383L32.146 123.041C30.9937 119.429 30.7398 116.473 30.2859 113.658L21.7755 115.939C22.1071 118.639 22.2976 121.705 23.4028 125.383Z" fill="#0000CD"/>
</g>
<path d="M32.6517 119.864L22.1307 122.683C21.7074 122.796 21.2723 122.544 21.1595 122.121L20.0354 117.923L32.0896 114.692L33.2137 118.89C33.3266 119.316 33.075 119.751 32.6517 119.864Z" fill="url(#paint2_linear)"/>
<g opacity="0.47">
<path opacity="0.47" d="M31.1043 120.278L23.6757 122.27C22.3987 122.613 21.0842 121.854 20.7432 120.577L20.106 118.202C20.066 118.049 20.1553 117.894 20.3082 117.851L31.8121 114.768C31.965 114.728 32.1202 114.818 32.1626 114.971L32.7998 117.346C33.1408 118.625 32.3813 119.937 31.1043 120.278Z" fill="#0000CD"/>
</g>
<path d="M26.9937 78.8196L11.4309 82.989C3.2074 85.1924 -1.67449 93.6464 0.528949 101.87L2.23856 108.252C4.442 116.476 12.8959 121.357 21.1194 119.154L36.6823 114.985C40.4495 113.976 44.3837 113.755 48.2403 114.333L73.2777 118.098L57.127 57.8223L37.3266 73.6014C34.2789 76.0353 30.7609 77.8108 26.9937 78.8196Z" fill="#EAEEF0"/>
<path d="M71.5869 86.2502C76.0479 102.895 76.6452 117.197 72.925 118.192C69.2048 119.189 62.5733 106.504 58.1123 89.8599C53.6514 73.2153 53.054 58.9153 56.7743 57.9183C60.4968 56.9212 67.1283 69.6057 71.5869 86.2502Z" fill="url(#paint3_linear)"/>
<path d="M29.0396 97.6515C27.2218 90.8672 26.046 84.4709 25.5428 79.208L11.4309 82.9894C3.2074 85.1928 -1.67449 93.6468 0.528949 101.87L2.23856 108.252C4.442 116.476 12.8959 121.358 21.1194 119.154L35.2313 115.373C33.0373 110.562 30.8574 104.436 29.0396 97.6515Z" fill="url(#paint4_linear)"/>
<g opacity="0.47">
<path opacity="0.7" d="M72.9108 113.646C72.8473 114.049 72.3394 114.185 72.083 113.868C69.6092 110.803 65.3011 102.505 61.6585 88.9101C58.0159 75.3156 57.5949 65.9727 58.2063 62.0832C58.2698 61.6811 58.7778 61.5447 59.0341 61.8621C61.508 64.9263 65.8161 73.225 69.4587 86.8195C73.1036 100.414 73.5222 109.757 72.9108 113.646Z" fill="#0000CD"/>
</g>
<mask id="mask0" mask-type="alpha" maskUnits="userSpaceOnUse" x="3" y="104" width="69" height="16">
<path d="M62.7943 104.053C59.4456 104.05 56.097 104.05 52.7483 104.048C45.3455 104.046 38.707 104.643 30.8997 107.039C27.6804 108.027 23.5698 109.588 17.244 111.072C15.8872 111.39 13.8719 111.836 11.2028 111.93C7.90588 112.048 5.18039 111.575 3.32263 111.126C6.51844 117.567 13.9048 121.085 21.1171 119.152L36.6799 114.983C40.4471 113.974 44.3814 113.753 48.238 114.331L71.1142 117.772C68.7062 116.26 65.6679 111.18 62.7943 104.053Z" fill="url(#paint5_linear)"/>
</mask>
<g mask="url(#mask0)">
<path opacity="0.2" d="M62.7943 104.053C59.4456 104.05 56.097 104.05 52.7483 104.048C45.3455 104.046 38.707 104.643 30.8997 107.039C27.6804 108.027 23.5698 109.588 17.244 111.072C15.8872 111.39 13.8719 111.836 11.2028 111.93C7.90588 112.048 5.18039 111.575 3.32263 111.126C6.51844 117.567 13.9048 121.085 21.1171 119.152L36.6799 114.983C40.4471 113.974 44.3814 113.753 48.238 114.331L71.1142 117.772C68.7062 116.26 65.6679 111.18 62.7943 104.053Z" fill="url(#paint6_linear)"/>
</g>
<mask id="mask1" mask-type="alpha" maskUnits="userSpaceOnUse" x="14" y="71" width="38" height="24">
<path d="M17.9142 87.3332C23.1136 85.9387 28.3153 84.5465 33.5147 83.1521C39.3278 79.3143 45.1385 75.4765 50.9517 71.6387C50.8741 72.457 50.8529 73.4894 51.0034 74.6652C51.1915 76.1349 51.5889 77.3366 51.9534 78.2114C46.787 81.6235 41.6206 85.0333 36.4541 88.4455C29.3594 90.3456 22.2647 92.248 15.1676 94.1481C14.2246 92.8335 14.06 91.1239 14.749 89.7012C15.6849 87.7682 17.7049 87.3708 17.9142 87.3332Z" fill="url(#paint7_linear)"/>
</mask>
<g mask="url(#mask1)">
</g>
<path d="M91.7565 48.2698C90.8088 48.2698 90.0258 47.5126 89.9999 46.5578C89.974 45.5866 90.7407 44.78 91.7095 44.7542C96.1305 44.6366 101.758 43.8465 103.449 40.7518C104.133 39.4984 104.022 38.2144 103.867 36.4366C103.7 34.513 103.491 32.1167 104.465 29.2995C105.734 25.6193 108.542 22.5011 112.808 20.0319C113.647 19.5452 114.722 19.8321 115.209 20.6739C115.696 21.5134 115.409 22.5881 114.567 23.0749C111.054 25.109 108.773 27.5876 107.785 30.4448C107.056 32.5565 107.214 34.3743 107.366 36.1309C107.543 38.1556 107.726 40.2509 106.532 42.4355C104.502 46.1487 99.6838 48.0558 91.8012 48.2651C91.7895 48.2698 91.773 48.2698 91.7565 48.2698Z" fill="white"/>
<path d="M127.524 142.085C127.367 142.085 127.207 142.082 127.047 142.078C118.235 141.856 116.272 136.163 114.539 131.14C113.346 127.681 112.22 124.415 109.036 122.548C106.762 121.214 103.496 122.508 99.0463 126.501C98.3244 127.15 97.2121 127.089 96.5654 126.367C95.9164 125.645 95.9775 124.532 96.6995 123.886C98.8065 121.993 105.219 116.234 110.816 119.514C115.119 122.037 116.577 126.263 117.861 129.993C119.545 134.875 120.763 138.402 127.136 138.562C130.591 138.642 134.071 137.574 137.436 136.532C138.363 136.246 139.348 136.765 139.635 137.692C139.922 138.618 139.402 139.604 138.475 139.891C135.146 140.925 131.388 142.085 127.524 142.085Z" fill="white"/>
<path d="M113.344 40.8351C112.552 40.8351 111.832 40.2965 111.637 39.4923C111.371 38.3988 110.703 34.5657 113.262 31.1253C114.953 28.8514 117.222 27.9201 118.426 27.5674C119.357 27.2946 120.333 27.8284 120.606 28.7597C120.878 29.6909 120.345 30.6668 119.413 30.9396C118.633 31.1677 117.163 31.7697 116.081 33.223C114.395 35.4899 114.927 38.1519 115.051 38.6622C115.282 39.6052 114.701 40.5552 113.758 40.7857C113.622 40.8186 113.483 40.8351 113.344 40.8351Z" fill="white"/>
<defs>
<linearGradient id="paint0_linear" x1="60.8673" y1="31.2945" x2="5.80729" y2="305.493" gradientUnits="userSpaceOnUse">
<stop stop-color="#7D7DFF"/>
<stop offset="1" stop-color="#0000CD"/>
</linearGradient>
<linearGradient id="paint1_linear" x1="126.019" y1="88.6899" x2="-79.906" y2="267.084" gradientUnits="userSpaceOnUse">
<stop stop-color="#0000CD"/>
<stop offset="1" stop-color="#9191FF"/>
</linearGradient>
<linearGradient id="paint2_linear" x1="-4.37478" y1="147.906" x2="62.5602" y2="84.8291" gradientUnits="userSpaceOnUse">
<stop stop-color="#0A5F7A"/>
<stop offset="1" stop-color="#0000CD"/>
</linearGradient>
<linearGradient id="paint3_linear" x1="8.86985" y1="167.387" x2="120.969" y2="8.529" gradientUnits="userSpaceOnUse">
<stop stop-color="#30C3F1"/>
<stop offset="1" stop-color="#0000CD"/>
</linearGradient>
<linearGradient id="paint4_linear" x1="-2.90192" y1="133.929" x2="60.2535" y2="42.5039" gradientUnits="userSpaceOnUse">
<stop stop-color="#317489"/>
<stop offset="1" stop-color="#0000CD"/>
</linearGradient>
<linearGradient id="paint5_linear" x1="33.4758" y1="90.6773" x2="38.3923" y2="121.877" gradientUnits="userSpaceOnUse">
<stop offset="0.2799" stop-color="white"/>
<stop offset="1"/>
</linearGradient>
<linearGradient id="paint6_linear" x1="33.4758" y1="90.6773" x2="38.3923" y2="121.877" gradientUnits="userSpaceOnUse">
<stop offset="0.251736" stop-color="#785DFF"/>
<stop offset="1" stop-color="#0000CD"/>
</linearGradient>
<linearGradient id="paint7_linear" x1="54.4478" y1="76.846" x2="20.1907" y2="87.0381" gradientUnits="userSpaceOnUse">
<stop stop-color="white"/>
<stop offset="1"/>
</linearGradient>
</defs>
</svg>
